<svg xmlns="http://www.w3.org/2000/svg" xmlns:xlink="http://www.w3.org/1999/xlink" viewBox="0 0 800 800"><defs><style>.cls-1{isolation:isolate;}.cls-2,.cls-28,.cls-35,.cls-56{opacity:0.4;}.cls-2,.cls-4{mix-blend-mode:overlay;}.cls-2{fill:url(#radial-gradient);}.cls-3{opacity:0.2;}.cls-19,.cls-4{fill:#09c7c3;}.cls-4,.cls-62{opacity:0.48;}.cls-45,.cls-5{fill:#fff;}.cls-5{opacity:0.1;}.cls-6{font-size:107.37px;fill:#000045;font-family:Dosis-SemiBold, Dosis;font-weight:600;letter-spacing:0.04em;}.cls-7{letter-spacing:0.05em;}.cls-8{letter-spacing:0.04em;}.cls-9{letter-spacing:0.05em;}.cls-10{fill:#ba9067;}.cls-11{fill:#0687a3;}.cls-12{fill:#26515c;}.cls-13{fill:#ab8763;}.cls-14{fill:#cac5bf;}.cls-15{fill:#59391b;}.cls-16{fill:#754d29;}.cls-17{fill:#946034;}.cls-18{fill:#fff2d1;}.cls-20{fill:#ff1900;}.cls-21{fill:#4f4948;}.cls-22{fill:#453f3e;}.cls-23,.cls-28{fill:#363231;}.cls-24{fill:#736a68;}.cls-25{fill:#dbdbdb;}.cls-26{fill:#ffe7ab;}.cls-27{fill:#00f2ec;}.cls-29{fill:#ff5542;}.cls-30{fill:#f2ede6;}.cls-31{fill:#079dbd;}.cls-32{fill:#f7c593;}.cls-33{fill:#754c31;}.cls-34,.cls-35{fill:#5e320a;}.cls-34,.cls-48,.cls-54{opacity:0.6;}.cls-36{fill:#6e4635;}.cls-37{fill:#e2ddd7;}.cls-38{fill:#825328;}.cls-39{fill:#976335;}.cls-40{fill:#b3753f;}.cls-41{fill:#e0dcd5;}.cls-42{fill:#f2efeb;}.cls-43{fill:#d6d2cc;}.cls-44{fill:#ebe6df;}.cls-46{fill:#c9c6c0;}.cls-47,.cls-58{fill:#ffd887;}.cls-48{fill:#e06536;}.cls-49{fill:#ff3c26;}.cls-50{fill:#ffb300;}.cls-51{fill:#5f870f;}.cls-52{opacity:0.28;}.cls-53{fill:#dedede;}.cls-55{opacity:0.3;}.cls-57{fill:#b08c57;}.cls-58{font-size:34.67px;font-family:Oswald-Light, Oswald Light;font-weight:300;letter-spacing:0.03em;}.cls-59{letter-spacing:0.04em;}.cls-60{letter-spacing:-0.03em;}.cls-61{letter-spacing:0.03em;}.cls-63{fill:#69615f;}</style><radialGradient id="radial-gradient" cx="385" cy="361.36" r="675.02" gradientTransform="translate(0 46.91) scale(1 0.87)" gradientUnits="userSpaceOnUse"><stop offset="0" stop-color="#363636"/><stop offset="1" stop-color="#363636" stop-opacity="0"/></radialGradient></defs><title>foody</title><g class="cls-1"><g id="Background"><path class="cls-2" d="M663,478s21.64-50.63,23.12-50.76c2.07-.18,21.36,10.35,21.36,10.35L701,385.17l-39.73-16.66,14-20.69,9.08,5.47,2-3.17-9.23-5,3.79-5.59,8.13,4.4,1.39-2.22-8-4.47,3.08-4.54-2.46-2.18-3.27,5.23-10.45-5.86-1.58,2.54,10.54,5.7-3.56,5.71-9.67-5.22-1.39,2.22,9.4,5.66-13.49,21.61-12.28-2.91-.7-22.11-26.53,18.77L624,336.94l10.24,1.17,9.17-18.7-33.21-8.82-1.58,18.05,8,5.5-8.75,24.18-15.49-47.55-43.13,25.1,16.28-48.4,7.9-2.6s-3.79,12.14.5,14.72c8,4.79,14-5.41,14-5.41l7.36-.15-3.94-4.57s11-14.49,1.92-18.87-16.39,9.06-16.39,9.06l-9.94,3.64,33.86-100.67L571.32,176l9.88-24,13.91,4.1,1.7-4.62-14-3.46,3.4-8.24,12.32,3.05,1.19-3.24-12.12-3.18,2.76-6.7-4-2-2.8,7.63-15.87-4.18-1.36,3.7,16,3.95-3.05,8.32-14.64-3.62-1.18,3.24,14.4,4.25-9,24.39L526.36,166,527.65,152l11.38-.9.19-2.1-11.34.49.5-5.4,12.37-.54.22-2.4-12.38.69.46-5-3.41.75-.19,4.37-9.45.53-.19,2.1,9.54-.42-.23,5.39-10.84.48-.28,3,11-.88-.58,13.28-34.32-7.68L449.81,368.27,473,184l-30.37-2.33.45-14.26s13.63,6.22,18.86,1c9.73-9.66-.41-18.53-.41-18.53l3.19-9.44-7.6,4.53s-13.29-15.74-23-4.59,3.94,22,3.94,22l.07,18.92-32.81-2.47-3.65-21.61,11.16-3.38-.72-3.33-10.93,3.77-1-6.1,9.63-3.32-.5-2.34-9.55,3.16-.84-5-3.53.5,1.19,5.51L384,150.89l.58,2.67,12.48-4.3,1.3,6-11.45,3.94.5,2.34L399,158.06l4.45,20.66-61.08-4.59,3.56,202.27L326,158l-38.3,10.56-1-21.95,14.1-7.43-2.62-16.3-90.07,27.77-2.07-12.24,12.33-3.72-.8-3.69-12.07,4.16-1.14-6.73L215,124.76l-.56-2.58-10.55,3.49L203,120.2l-3.89.55,1.31,6.08-13.82,4.56.63,3L201,129.59l1.43,6.63-12.64,4.36.56,2.58,12.75-3.85,2.61,12.09-35.11,10.83,7.76,23.43,14.82-8.18,9.21,21.92L169.27,203l32.78,100.45-29.31-7.51-3.06-18.07,9-2.7-.58-2.68-8.77,3-.83-4.89,7.73-2.67-.4-1.87-7.67,2.53-.67-4-2.83.4.95,4.41-10,3.32.46,2.14,10-3.45,1,4.82-9.19,3.17.4,1.87,9.27-2.8,3.67,17-19.33-4.95-8.82,25.56-29.93-5.66,13.22,38.11-7.07,13.74L106.1,343l8.49-10.67-3-4.19-8,11.09-5.31-7.81,7-9.77-2.13-2.93-7.08,9.5-4.31-6.34-3.08,2.59,5,6.91-9.28,12.45,2.45,3.35L96,334.47l5.5,7.54-8.37,11.61,2.14,2.93,8.78-11,14,19.18-7.67,14.9,20.1-3.81L135.65,396l-48.2,14.42L73.22,462.83,93.93,457,114,493.25S51,513,0,546V800H800V545C744,511,663,478,663,478Z"/><g class="cls-3"><polygon class="cls-4" points="564.67 195.38 580.46 199.15 566.86 235.39 554.81 231.47 564.67 195.38"/><polygon class="cls-4" points="133.82 455.19 125.72 433.85 138.22 427.86 147.49 450.32 133.82 455.19"/><path class="cls-4" d="M159.53,315.54l1.29,10.75-4.94.44C155.46,321.26,157,316.68,159.53,315.54Z"/><path class="cls-4" d="M156.14,328.87l4.94-.44,1.3,10.75C159.62,338.51,157,334.3,156.14,328.87Z"/><path class="cls-4" d="M161.56,315.35c2.76.67,5.34,4.89,6.24,10.31l-4.94.44Z"/><path class="cls-4" d="M164.41,339l-1.3-10.75,4.95-.45C168.47,333.27,167,337.85,164.41,339Z"/><path class="cls-4" d="M189.28,349.89l1.89,15.73-7.23.65C183.33,358.27,185.56,351.57,189.28,349.89Z"/><path class="cls-4" d="M184.31,369.41l7.24-.65,1.9,15.73C189.41,383.51,185.63,377.34,184.31,369.41Z"/><path class="cls-4" d="M192.25,349.62c4,1,7.82,7.15,9.14,15.08l-7.24.65Z"/><path class="cls-4" d="M196.42,384.22l-1.89-15.73,7.23-.65C202.37,375.84,200.14,382.54,196.42,384.22Z"/><polygon class="cls-4" points="315.11 262.03 300.74 267.99 296.75 253.86 312.58 248.07 315.11 262.03"/><polygon class="cls-4" points="299.45 308.64 284.71 314.63 277.96 283.37 291.94 278.17 299.45 308.64"/><polygon class="cls-4" points="312.03 229.72 297.29 235.71 290.55 204.44 304.52 199.24 312.03 229.72"/><polygon class="cls-4" points="299.62 179.86 302.79 194.92 289.35 199.48 284 185.83 299.62 179.86"/><polygon class="cls-4" points="288.5 258.59 291.14 272.44 276.77 278.4 272.78 264.27 288.5 258.59"/><polygon class="cls-4" points="265.23 241.76 253.4 247.49 248.11 217.79 260.15 213.24 265.23 241.76"/><polygon class="cls-4" points="249.15 296.73 256.66 327.21 241.93 333.2 235.18 301.93 249.15 296.73"/><polygon class="cls-4" points="233.98 296.97 229.99 282.84 247.66 275.87 248.35 291.01 233.98 296.97"/><polygon class="cls-4" points="257.27 194.07 259.39 208.28 246.07 213.38 243.25 198.9 257.27 194.07"/><polygon class="cls-4" points="234.71 202.43 235.4 217.57 221.03 223.53 217.04 209.39 234.71 202.43"/><polygon class="cls-4" points="192.77 218.38 208.38 213.43 211.13 226.56 198.46 231.81 192.77 218.38"/><polygon class="cls-4" points="209.73 262.16 201.28 236.1 215.43 232.13 222.32 258.83 209.73 262.16"/><polygon class="cls-4" points="235.14 224.63 243.86 250.74 233.59 256.5 224.97 227.08 235.14 224.63"/><polygon class="cls-4" points="229.07 359.57 239.54 353.68 239.7 367.61 231.18 372.67 229.07 359.57"/><polygon class="cls-4" points="235.24 406.18 231.79 377.26 240.07 372.89 243.97 401.11 235.24 406.18"/><polygon class="cls-4" points="251.07 352.59 261.54 346.7 261.7 360.63 253.18 365.69 251.07 352.59"/><polygon class="cls-4" points="257.24 399.2 253.8 370.28 262.07 365.91 265.97 394.12 257.24 399.2"/><polygon class="cls-4" points="271.68 344.64 282.14 338.75 282.3 352.68 273.78 357.74 271.68 344.64"/><polygon class="cls-4" points="277.84 391.25 274.4 362.33 282.68 357.96 286.57 386.17 277.84 391.25"/><polygon class="cls-4" points="292.1 340.33 302.57 334.44 302.73 348.37 294.2 353.43 292.1 340.33"/><polygon class="cls-4" points="298.27 386.94 294.82 358.02 303.1 353.65 307 381.86 298.27 386.94"/><polygon class="cls-4" points="308.69 304.22 301.94 272.95 315.91 267.75 323.42 298.23 308.69 304.22"/><polygon class="cls-4" points="417.85 199.15 428.97 200.35 422.94 234.54 414.39 232.39 417.85 199.15"/><polygon class="cls-4" points="411.71 250 422.77 252.66 417.73 281.33 410.56 280.51 411.71 250"/><polygon class="cls-4" points="378.19 198.26 387.21 198.2 385.63 230.74 376.6 230.25 378.19 198.26"/><polygon class="cls-4" points="365.21 277.94 356.25 276.21 356.69 246.1 369.3 246.45 365.21 277.94"/><polygon class="cls-4" points="379.81 325.54 372.2 326.2 371.65 300.91 382.89 299.93 379.81 325.54"/><polygon class="cls-4" points="384.64 279.14 374.16 279.33 377.89 247.88 389.11 247.26 384.64 279.14"/><polygon class="cls-4" points="398.17 326.48 389.92 325.38 391.51 300.63 400.9 300.54 398.17 326.48"/><polygon class="cls-4" points="394.1 230.74 396.75 198.62 409.88 200.09 404.64 232.52 394.1 230.74"/><polygon class="cls-4" points="415.75 328.56 407.14 327.5 408.1 301 418.19 301.2 415.75 328.56"/><polygon class="cls-4" points="429.76 329.88 421.51 328.79 425.11 299.88 436.21 301.81 429.76 329.88"/><polygon class="cls-4" points="436.42 282.96 426.45 284.09 429.87 254.94 441.67 257.17 436.42 282.96"/><polygon class="cls-4" points="433.06 234.39 437.58 201.41 450.49 203.19 442.22 236.32 433.06 234.39"/><path class="cls-4" d="M579,325.21c.06-1.09,8.12,3.63,8.12,3.63l-5.7,20.41-8.43-4.7S579,326.3,579,325.21Z"/><polygon class="cls-4" points="584.25 372.9 579.96 386.67 575.36 384.89 578.91 371.55 584.25 372.9"/><polygon class="cls-4" points="555.47 363.82 560.27 368.83 555.57 383.72 548.42 382.17 555.47 363.82"/><polygon class="cls-4" points="531.55 190.05 542.81 191.91 532.34 228.6 521.53 224.43 531.55 190.05"/><polygon class="cls-4" points="546.33 252.95 533.31 286.51 524.66 284.63 533.43 248.81 546.33 252.95"/><polygon class="cls-4" points="507.86 183.12 521.66 186.74 512.93 221.68 500.02 218.75 507.86 183.12"/><polygon class="cls-4" points="482.1 300.71 495.02 302.11 488.57 337.43 477.53 334.41 482.1 300.71"/><polygon class="cls-4" points="476.98 381.88 467.56 382.7 471.54 353.39 481.22 354.72 476.98 381.88"/><polygon class="cls-4" points="496.52 388.14 487.17 387.5 493.09 355.5 501.99 357.98 496.52 388.14"/><polygon class="cls-4" points="496.58 278.31 488.35 276.84 493.13 242.25 506.6 243.7 496.58 278.31"/><polygon class="cls-4" points="513.99 244.37 524.83 246.06 514.26 282.91 507.88 279.52 513.99 244.37"/><polygon class="cls-4" points="517.62 304.85 528.24 309 518.59 343.5 509.7 340.65 517.62 304.85"/><polygon class="cls-4" points="521.22 392.14 515.21 389.77 521.58 363.15 530.48 365.63 521.22 392.14"/><polygon class="cls-4" points="529.32 345.46 536.14 309.76 547.85 313.8 537.09 348.77 529.32 345.46"/><polygon class="cls-4" points="549.46 397.65 542.74 394.98 546.85 384.84 552.88 386.85 549.46 397.65"/><polygon class="cls-4" points="562.66 400.84 555.08 400.78 557.8 389.68 565.28 391.56 562.66 400.84"/><polygon class="cls-4" points="559.05 386.31 564.93 369.51 571.29 372.22 566.19 387.87 559.05 386.31"/><polygon class="cls-4" points="574.64 406.68 568.93 405.36 573.73 388.66 577.9 391.91 574.64 406.68"/><polygon class="cls-4" points="585.8 407.15 578.61 406.69 581.72 394.84 588.93 394.93 585.8 407.15"/><polygon class="cls-4" points="591.63 391.44 583.77 389.95 588.13 374.73 594.68 381.04 591.63 391.44"/></g><path class="cls-5" d="M628.48,211.32S640,201,651.1,209.56c0,0,9.12-10.57,25.39-7.05s13.1,10.57,13.1,10.57,21,1.47,11.9,12.33-21.43.59-21.43.59-18.65,12.32-25.39,6.45-5.56-10.27-5.56-10.27-21,2.93-25-1.47S618.16,209.56,628.48,211.32Z"/><path class="cls-5" d="M372,105.22s7.76-6.93,15.25-1.19c0,0,6.15-7.13,17.12-4.75s8.83,7.12,8.83,7.12,14.18,1,8,8.32-14.45.39-14.45.39-12.57,8.31-17.12,4.36-3.75-6.93-3.75-6.93-14.17,2-16.85-1S365.06,104,372,105.22Z"/><path class="cls-5" d="M320.44,80.8s-12.63-9.71-24.82-1.66c0,0-10-10-27.88-6.67s-14.37,10-14.37,10-23.08,1.39-13.06,11.66,23.51.55,23.51.55,20.47,11.66,27.88,6.11,6.09-9.72,6.09-9.72,23.09,2.78,27.44-1.38S331.76,79.14,320.44,80.8Z"/></g><g id="Objects"><text class="cls-6" transform="translate(237.04 621.74) scale(0.93 1)">F<tspan class="cls-7" x="58.19" y="0">OO</tspan><tspan class="cls-8" x="190.47" y="0">D</tspan><tspan class="cls-9" x="256.07" y="0">Y</tspan></text><path class="cls-10" d="M412.79,297s-11.8,2.7-22.18,15.86c0,0-5.41,5.95-5,8.25s2.36,3.77,4.56,2.47c0,0,6.74,14.44,59,15.42l5.41,1.46s.74,2.6,1.17,2.11,9.5.72,10.6,3.65c1,2.68,5.19,1.43,6.54-.85,1.64-2.76,2.17-17.73,1.37-17.57s-.81-1.46-2.84-.65-1.26-.81-3.31.33-7.1,1.94-11.87,2.43-10.71,1-11.73.49-11.93-2.28-24-15.75a20.87,20.87,0,0,1,2.26-4.86C421,301.47,412.79,297,412.79,297Z"/><path class="cls-11" d="M452.64,377.28c-6.24,1.15-15.77-4.74-42-4.25-18.32.33-48.32-21.88-48.32-21.88s-11.39,44.56,25.91,40.5c13.6-1.49,40.23,3.71,45.67,2.48,0,0-3,2.87,5.84,1.06l.2.38c-9,8.87-5.28,28.6-7.43,35.26s-7.64,13.76-7.64,13.76c11-1.33,21.07,6.3,21.07,6.3s1.16-3,1-10.75,4.83-18.63,6.39-28.6,3.83-19.88,3.83-19.88l-.23,0C457.72,386,457.44,376.39,452.64,377.28Z"/><path class="cls-12" d="M445.93,450.89c-.25,1.23-5.16.81-11-.93s-10.33-4.14-10.09-5.37,5.16-.8,11,.94S446.17,449.67,445.93,450.89Z"/><path class="cls-13" d="M432.07,444.64l-5.36,7.73s7.94,3.52,7.91,3.27,2.17-6.35,4.6-9A47.18,47.18,0,0,0,432.07,444.64Z"/><path class="cls-14" d="M425,448.61s7.86,3.88,12.46,4.73c0,0,1.62,1.39-.34,1.88s-.67,1-.46,1.27-1.78,1-2.27,1,.74,3.34.91,3.76a9,9,0,0,1-.75,2.61s-7.76-1.3-12.21-5.84l-.15-.16c-4.42-4.67,2.73-6.13,2.18-7.16S423.56,448.73,425,448.61Z"/><path class="cls-15" d="M415.08,467.22s-.71,3.57,1.58,5.13,8.88,2.93,11.92,2.1,8.3,1.84,11.54,2.84,13.12,4.67,23.13,2.93c0,0,1.41-1.46.62-2.74S420.47,465.3,415.08,467.22Z"/><path class="cls-16" d="M420.18,451.93a13.68,13.68,0,0,0,15.36,8.24l4.93-3.66s5.43,6.59,8.8,11.26,12.35,4.4,14,5.31,1.67,4.31.25,5.59a40.15,40.15,0,0,1-16.36-.74c-8.54-2.28-10-6-14.38-6.86s-5.93,1.46-7.72,1.09-8.84-1.77-10.24-3.61-2.52-7.93,0-13.32C416,452.84,418.79,450.19,420.18,451.93Z"/><path class="cls-17" d="M449.27,467.77c-3.37-4.67-8.8-11.26-8.8-11.26l-2.38,1.77c1.68,2.26,8.16,10.87,10.56,12.85a2.51,2.51,0,0,0,4.08-.65A8.77,8.77,0,0,1,449.27,467.77Z"/><path class="cls-18" d="M504.12,329.67c-.47,6.26-4.05,11.34-8,11.34s-6.78-5.08-6.31-11.34,4.05-11.33,8-11.33S504.59,323.41,504.12,329.67Z"/><path class="cls-19" d="M476.53,324.54l20.83-10.9-.72,29.06-12.14,3S475.61,330.93,476.53,324.54Z"/><path class="cls-20" d="M470.8,359.71l20.13-2.78-13.07-36.46c-8.44,3.48-15.16,15.11-12.73,23.68A104,104,0,0,0,470.8,359.71Z"/><path class="cls-21" d="M477.67,398.09s4.14-6.84-6.87-38.38l8.19-4,3.32.78,9.21,35.25Z"/><path class="cls-20" d="M473.81,452.23s-10.13-7.6-9.78-12.16,2.9-38.75,3.11-41.6,3-4.75,5.85-5.42S491.91,389,491.91,389l6.69,25.45Z"/><path class="cls-22" d="M236.37,408.33s-.49-11.3-13-15.46l17.17.5s1.11,9.64,12.06,15.12Z"/><path class="cls-21" d="M391.6,464.67s32,19.55,79.31,13.94l-3.63,9.48s-43,2.71-68.89-7.55Z"/><path class="cls-20" d="M405.77,408.52c4.64,2.26-5.91,14.51-10.31,27.55-4,12-5.23,29.72,11,43.16l-28.3-7.84S377,455,377.27,451.06,405.77,408.52,405.77,408.52Z"/><path class="cls-21" d="M326,494.52s38-2.08,49-5.2l-25.11-25.49Z"/><polygon class="cls-22" points="230.61 462.45 212.21 462.45 207.79 449.99 231.38 449.99 230.61 462.45"/><ellipse class="cls-23" cx="283.17" cy="486.13" rx="46.97" ry="43.58" transform="translate(-252.26 313.43) rotate(-41.9)"/><ellipse class="cls-24" cx="283.17" cy="486.13" rx="30.62" ry="28.42" transform="translate(-252.26 313.44) rotate(-41.9)"/><ellipse class="cls-25" cx="283.17" cy="486.13" rx="25.29" ry="23.47" transform="translate(-252.26 313.44) rotate(-41.9)"/><ellipse class="cls-24" cx="283.17" cy="486.13" rx="12.39" ry="11.49" transform="translate(-252.25 313.42) rotate(-41.9)"/><ellipse class="cls-23" cx="530.54" cy="486.13" rx="46.97" ry="43.58" transform="translate(-189 478.64) rotate(-41.9)"/><ellipse class="cls-24" cx="530.54" cy="486.13" rx="30.62" ry="28.42" transform="translate(-189 478.65) rotate(-41.9)"/><ellipse class="cls-25" cx="530.54" cy="486.13" rx="25.29" ry="23.47" transform="translate(-189 478.63) rotate(-41.9)"/><ellipse class="cls-24" cx="530.54" cy="486.13" rx="12.39" ry="11.49" transform="translate(-189 478.63) rotate(-41.9)"/><path class="cls-21" d="M533.27,485.45c.63,1.14.53,2.41-.21,2.85l-2,1.18c-.74.44-1.84-.13-2.47-1.27L510.8,455.76c-.62-1.14-.53-2.42.22-2.85l2-1.19c.75-.43,1.85.14,2.47,1.28Z"/><path class="cls-23" d="M522.33,461.21a17.63,17.63,0,0,1-2.41,1.57L516.21,465a15.93,15.93,0,0,1-2.54,1.35l-.94-1.73a16.38,16.38,0,0,1,2.41-1.56l3.71-2.19a15.35,15.35,0,0,1,2.54-1.34Z"/><path class="cls-23" d="M520.6,458a16.2,16.2,0,0,1-2.41,1.57l-3.71,2.18a16.61,16.61,0,0,1-2.53,1.35l-.95-1.72a15.67,15.67,0,0,1,2.41-1.57l3.72-2.19a16.51,16.51,0,0,1,2.53-1.34Z"/><path class="cls-23" d="M526,467.51a16.38,16.38,0,0,1-2.41,1.56l-3.71,2.19a15.35,15.35,0,0,1-2.54,1.34l-.94-1.72a17.63,17.63,0,0,1,2.41-1.57l3.71-2.18a15.93,15.93,0,0,1,2.54-1.35Z"/><path class="cls-23" d="M524.24,464.34a16.85,16.85,0,0,1-2.42,1.56l-3.71,2.19a17.77,17.77,0,0,1-2.53,1.35l-1-1.73a16.85,16.85,0,0,1,2.42-1.56l3.71-2.19a17.18,17.18,0,0,1,2.53-1.35Z"/><path class="cls-23" d="M536.69,486.13a6.72,6.72,0,0,1-6.61,6.11,5.61,5.61,0,0,1-5.69-6.11A6.73,6.73,0,0,1,531,480,5.62,5.62,0,0,1,536.69,486.13Z"/><path class="cls-21" d="M297,447.92l-2.14-.56c-.79-.2-1.78.68-2.22,2l-12.32,37c-.43,1.3-.14,2.51.65,2.72l2.15.56c.79.21,1.78-.68,2.21-2l12.32-37C298.06,449.34,297.77,448.13,297,447.92Z"/><path class="cls-23" d="M290.55,458a14.83,14.83,0,0,0-2.68-.57l-.66,2a14.23,14.23,0,0,0,2.6.81l4,1a14.83,14.83,0,0,0,2.68.57l.66-2a14.23,14.23,0,0,0-2.6-.81Z"/><path class="cls-23" d="M295.71,455.41l-4-1a14.28,14.28,0,0,0-2.69-.56l-.65,2a13.91,13.91,0,0,0,2.6.81l4,1a14.12,14.12,0,0,0,2.69.56l.65-2A13.77,13.77,0,0,0,295.71,455.41Z"/><path class="cls-23" d="M288,465.21a14.26,14.26,0,0,0-2.68-.56l-.65,2a13.47,13.47,0,0,0,2.6.82l4,1a14.26,14.26,0,0,0,2.68.56l.66-2a14.23,14.23,0,0,0-2.6-.81Z"/><path class="cls-23" d="M289.18,461.61a14.66,14.66,0,0,0-2.69-.57l-.65,2a14.23,14.23,0,0,0,2.6.81l4,1a14.66,14.66,0,0,0,2.69.57l.65-2a14.23,14.23,0,0,0-2.6-.81Z"/><path class="cls-23" d="M289.32,486.13a6.72,6.72,0,0,1-6.61,6.11,5.61,5.61,0,0,1-5.69-6.11,6.73,6.73,0,0,1,6.61-6.12A5.61,5.61,0,0,1,289.32,486.13Z"/><ellipse class="cls-23" cx="322.92" cy="473.42" rx="24.85" ry="21.68" transform="translate(-108.38 96.08) rotate(-14.52)"/><ellipse class="cls-21" cx="322.92" cy="473.42" rx="20.08" ry="17.52" transform="translate(-108.39 96.09) rotate(-14.52)"/><path class="cls-23" d="M341.14,473.42a1.94,1.94,0,0,1-2,1.58H306.5a1.64,1.64,0,0,1-1.81-1.58h0a2,2,0,0,1,2.05-1.59h32.59a1.63,1.63,0,0,1,1.81,1.59Z"/><path class="cls-23" d="M337.37,478.77a1.83,1.83,0,0,1-1.86,1.59H309.29a1.52,1.52,0,0,1-1.62-1.59h0a1.83,1.83,0,0,1,1.86-1.58h26.21a1.53,1.53,0,0,1,1.63,1.58Z"/><path class="cls-23" d="M333,484.13a1.83,1.83,0,0,1-1.86,1.58H312.91a1.54,1.54,0,0,1-1.63-1.58h0a1.84,1.84,0,0,1,1.87-1.59h18.18a1.52,1.52,0,0,1,1.62,1.59Z"/><path class="cls-23" d="M338.17,468.07a1.52,1.52,0,0,0-1.62-1.59H310.33a1.83,1.83,0,0,0-1.86,1.59h0a1.52,1.52,0,0,0,1.62,1.58h26.22a1.83,1.83,0,0,0,1.86-1.58Z"/><path class="cls-23" d="M334.55,462.71a1.52,1.52,0,0,0-1.62-1.58H314.75a1.83,1.83,0,0,0-1.86,1.58h0a1.52,1.52,0,0,0,1.62,1.59h18.18a1.83,1.83,0,0,0,1.86-1.59Z"/><path class="cls-23" d="M344.77,474.32s20,24.48,27,24.86c39.48,2.18,100-3.52,101.53-5.25S344.77,474.32,344.77,474.32Z"/><path class="cls-19" d="M341.12,469.9s12.5,15.5,15.12,16.82c3.13,1.57,15.76,6.06,39.05,6.93s77.6,1.91,78.24.35,7.13-34.19,27.51-50.8c2.23-1.82,4.29-3.37,6.18-4.7,0,0,7-10.39,4.48-26s-13.89-49.59-16-53.75S487,350.81,479,355.67c0,0,11.85,40.19,13.19,45.57S495.29,417.53,489,425s-16.81,22-17.18,26.87S470,485.33,465.24,486s-59.27-2.25-84-18.55c0,0-4-4.51-1-14.39s24.67-38.95,26.56-45.54L298.23,395.06l-18.82,16.58Z"/><path class="cls-26" d="M228.51,434.31c-.16,1.81-2.73,3.28-5.72,3.28h0c-3,0-5.29-1.47-5.12-3.28l1.28-14c.17-1.82,2.73-3.29,5.73-3.29h0c3,0,5.29,1.47,5.12,3.29Z"/><polygon class="cls-20" points="227.07 439.07 221.47 439.07 223.8 414.59 229.4 414.59 227.07 439.07"/><path class="cls-27" d="M308.26,439.41A9.46,9.46,0,0,1,299,448H232.86a7.89,7.89,0,0,1-8-8.6l1.84-24.63a9.46,9.46,0,0,1,9.29-8.6H302.1a7.89,7.89,0,0,1,8,8.6Z"/><path class="cls-19" d="M315.48,446.61a9.47,9.47,0,0,1-9.29,8.61H240.08a7.9,7.9,0,0,1-8-8.61L233.92,422a9.47,9.47,0,0,1,9.29-8.61h66.11a7.9,7.9,0,0,1,8,8.61Z"/><path class="cls-19" d="M315.48,446.61a9.47,9.47,0,0,1-9.29,8.61H240.08a7.9,7.9,0,0,1-8-8.61L233.92,422a9.47,9.47,0,0,1,9.29-8.61h66.11a7.9,7.9,0,0,1,8,8.61Z"/><path class="cls-20" d="M218.3,474.29c4.91.13,41.13-19.28,80.41-14.68s64.28,16.47,68.75,16c6.5-.74,10.06-9.09,9.3-16.74-.65-6.62-11.22-53.77-56-53.84C251.05,404.87,203.73,473.93,218.3,474.29Z"/><path class="cls-27" d="M504.4,384.08s11.83,33.68,4.44,50.63c0,0,8-6.89,16.35-6.2C525.19,428.51,517.37,402.55,504.4,384.08Z"/><path class="cls-20" d="M475.22,482.88c-.47,6.28,7.52,5.95,12.48,4,9.66-3.86,7.73-17.25,39.68-33.36,22.6-11.39,41.59-5.6,44.09-7.93s-23-26-53.84-16.76C496.23,435.22,476.9,460.35,475.22,482.88Z"/><path class="cls-21" d="M354.09,385.83c-11.75-4.49-25.45-17.75-39.88-14.64s-22.24,11-23,15.16c-.9,5.17,1.11,8,7,8.71s23.89,2.32,50.71,12,53.7,6.2,63.23-3.79c0,0-.55-19-16.92-15.51S361.69,388.74,354.09,385.83Z"/><path class="cls-22" d="M354.09,385.83c-11.75-4.49-25.45-17.75-39.88-14.64s-22.24,11-23,15.16c-.9,5.17,1.11,8,7,8.71s23.89,2.32,50.71,12,53.7,6.2,63.23-3.79c0,0-.55-19-16.92-15.51S361.69,388.74,354.09,385.83Z"/><path class="cls-28" d="M349.08,396.64c-28.12-9.65-47-11.3-53.17-12a14.48,14.48,0,0,1-3.61-.82,7.42,7.42,0,0,0-1.06,2.5c-.9,5.17,1.11,8,7,8.71s23.89,2.32,50.71,12,53.7,6.2,63.23-3.79a25.19,25.19,0,0,0-1.42-6.94C398.28,403.5,373.66,405.07,349.08,396.64Z"/><path class="cls-20" d="M287.16,390.38a5.3,5.3,0,0,1-5.2,4.82H209.79a4.42,4.42,0,0,1-4.48-4.82h0a5.3,5.3,0,0,1,5.2-4.82h72.17a4.42,4.42,0,0,1,4.48,4.82Z"/><path class="cls-29" d="M247.47,438.15s79.1-56.49,116.11,3.31C363.58,441.46,319.94,401.3,247.47,438.15Z"/><path class="cls-29" d="M483.28,471.85s28.43-59.49,72.58-32.7C555.86,439.15,515.76,421.08,483.28,471.85Z"/><path class="cls-29" d="M370.49,355.83c-3.14,4.69-16,.45-28.74-9.47s-20.51-21.77-17.37-26.46,16-.45,28.75,9.47S373.63,351.14,370.49,355.83Z"/><path class="cls-30" d="M355,350.39c.61-.87,15.49-14.24,15.49-14.24l7,11.79-17.57,7.32Z"/><path class="cls-31" d="M457.42,376.89c-6.57,1.17-15.16-4.82-42-4.33-18.73.35-45.08-22.27-45.08-22.27l-24.59-4.39-2.3,6.8,5.75,1.1s-5.43,3.73-7.64,15,8.73,26.88,47.5,22.75c14.13-1.51,40.28,3.78,46.05,2.53,0,0-3.58,2.92,5.75,1.07l.13.4c-10.88,9-10.8,29.11-14.25,35.88s-10.39,14-10.39,14c11.44-1.35,20.26,6.41,20.26,6.41s1.76-3.05,3-10.95,8.45-19,11.94-29.11,7.67-20.23,7.67-20.23l-.24,0C461,385.76,462.48,376,457.42,376.89Z"/><path class="cls-12" d="M436.63,451.83c-.48,1.25-5.41.82-11-.95s-9.74-4.21-9.26-5.46,5.41-.82,11,.95S437.12,450.59,436.63,451.83Z"/><path class="cls-32" d="M448.84,289.61l7,7.16s7.66-3.58,18.55-7.95c0,0,28.24,1.83,37.45-19.34,0,0,12.75-1.83,15.43-6,6.33-9.9-11.39-9.41-11.39-9.41S530.64,229,503,225.82s-34.4,17.23-36.5,45.23C466,278.11,465,282.93,448.84,289.61Z"/><path class="cls-33" d="M491.84,244.34s-.37,19.13,5.39,20l-9.56.35.24-3.16s.41-10.18-7.45-9Z"/><path class="cls-34" d="M518.94,265.07c0,.57-1.37,1-3,1s-2.86-.47-2.82-1,1.38-1,3-1S519,264.5,518.94,265.07Z"/><path class="cls-35" d="M498.87,273.3a20.58,20.58,0,0,0,5.07,6.72c.63-.53,1.24-1.08,1.83-1.66A24.45,24.45,0,0,1,498.87,273.3Z"/><path class="cls-19" d="M493.57,287.18c-14.27-19.09-12-41.44-11.92-42.38l4.14.14-2.07-.07,2.07.06c0,.22-2.15,21.78,11.2,39.63Z"/><path class="cls-33" d="M506.22,274.06V274s0,0,0,0-.11-.27-.18-.48a5,5,0,0,0-.36-.68,1.82,1.82,0,0,0-.23-.3,1.15,1.15,0,0,0-.24-.25c-.08-.09-.19-.1-.27-.19a.53.53,0,0,1-.17-.08l-.09-.05-.12,0a2.44,2.44,0,0,1-.26-.06,2.88,2.88,0,0,0-.33,0l-.37,0-.46,0-.47,0-.54.12a6.7,6.7,0,0,0-1.15.26l-1.23.38-1.49.5c-1,.33-2.05.69-3.05,1s-2,.54-3,.76-2,.35-2.94.45a13.15,13.15,0,0,1-2.74,0,4.89,4.89,0,0,1-2.29-.75l-.41-.32-.3-.39a2.72,2.72,0,0,1-.32-.74,2.88,2.88,0,0,1,0-1.06l.05-.35.14.32a2.83,2.83,0,0,0,.47.77,1.82,1.82,0,0,0,1.09.53,4.36,4.36,0,0,0,1.68-.18,14.15,14.15,0,0,0,2.1-.75l1.16-.53,1.2-.62c.82-.43,1.65-.88,2.5-1.39s1.66-.95,2.56-1.5l1.3-.79,1.58-.82a16.16,16.16,0,0,1,1.69-.71c.29-.11.57-.22.87-.31l.94-.22.94-.2,1-.09a6.68,6.68,0,0,1,1,0l1,.11a9.44,9.44,0,0,1,2,.52,8.19,8.19,0,0,1,1.64.95,7.57,7.57,0,0,1,2,2.29,8.28,8.28,0,0,1,.84,2,8.56,8.56,0,0,1,.27,1.35c0,.2,0,.36,0,.46v.09a3.79,3.79,0,0,1-3.51,3.63,3.14,3.14,0,0,1-3.49-2.42Z"/><path class="cls-21" d="M498.45,288.91c-1.69,1.51-3.79,1.93-4.68.93l-2.7-3c-.9-1-.26-3,1.42-4.55h0c1.69-1.52,3.78-1.94,4.68-.94l2.7,3c.9,1,.26,3-1.42,4.56Z"/><path class="cls-33" d="M474.53,255s-3.3,14.21,5.75,15.24c0,0-11.06,8.22-24.15,5.22a12.25,12.25,0,0,0,9.06-6.08s-9.05,6-17,1.2c0,0,13.72,0,15.75-7.59L466.5,258Z"/><path class="cls-36" d="M513.31,251.27s-3.84,1.44-13.61,2.16c0,0,8.37.89,12.59-.29Z"/><path class="cls-20" d="M463.32,264.32l58.27-26s-4.54-37-42-20.35C449,231.64,463.32,264.32,463.32,264.32Z"/><path class="cls-21" d="M497.53,246.87c-.47,3,17.33-.4,39.22,6,0,0,4.29-.7,4.74-2.26,0,0-10.85-8.62-19.9-12.31C520.49,237.56,497.69,245.8,497.53,246.87Z"/><polygon class="cls-30" points="438.42 294.33 448.12 284.71 461.54 300.06 454.29 304.44 438.42 294.33"/><path class="cls-29" d="M419,319.38c-2,2.91-12.7-2.54-19-7.47s-9.79-11.28-7.83-14.2,8.65-1.28,14.94,3.65S420.92,316.46,419,319.38Z"/><path class="cls-20" d="M416.41,387.38s12.52-9.95,13.09-17.57,11.81-36.08,20.32-48.29c5.75-8.23,15-13.19,12.6-14.93s-17.22-12.81-20.32-23.47c-2.08-7.14-10.18,0-12.66,3.74,0,0-29.3,2.09-37.06,10.54a29.32,29.32,0,0,1,18.88,7.47c9.47,8.77,4.47,16.3,4.47,16.3s-13.67-13.91-17-14.6-19.37,4.54-36.74,3.5-33.36,3.6-37.57,9.83c0,0,15.72-6.16,39.91,27.85C380.58,370.65,385.13,379.46,416.41,387.38Z"/><path class="cls-32" d="M423.78,445.39l-7,7.95s7.43,3.58,7.45,3.33,3.35-6.5,6.32-9.17A47.63,47.63,0,0,0,423.78,445.39Z"/><path class="cls-37" d="M415.76,449.51s7.27,3.95,11.8,4.81c0,0,1.38,1.42-.7,1.92s-.89,1.05-.72,1.29-2,1-2.49,1,.11,3.4.21,3.83S422.6,465,422.6,465s-7.66-1.32-11.33-5.94l-.12-.17c-3.62-4.75,3.94-6.23,3.58-7.28S414.26,449.63,415.76,449.51Z"/><path class="cls-38" d="M402.11,468.45s-1.39,3.64.64,5.22,8.49,3,11.74,2.15,8.11,1.86,11.22,2.89,12.48,4.75,23,3c0,0,1.7-1.49,1.14-2.8S408,466.5,402.11,468.45Z"/><path class="cls-39" d="M410.21,452.89s1.86,10.25,14.09,8.39l5.71-3.73s4.28,6.71,6.83,11.46,11.75,4.48,13.28,5.41.89,4.38-.8,5.69a40.56,40.56,0,0,1-16.54-.75c-8.26-2.33-9-6.15-13.34-7s-6.32,1.49-8.07,1.11-8.67-1.8-9.75-3.67-1.06-8.08,2.53-13.57C405.74,453.82,409.13,451.12,410.21,452.89Z"/><path class="cls-40" d="M436.84,469c-2.55-4.75-6.83-11.46-6.83-11.46l-2.76,1.8c1.29,2.3,6.25,11.07,8.32,13.08,1.48,1.45,3.18.72,4.28-.66A6.79,6.79,0,0,1,436.84,469Z"/><path class="cls-29" d="M477.51,224.32s23.65-17.54,34,.69C511.54,225,500.28,214.42,477.51,224.32Z"/><path class="cls-19" d="M462.42,306.59c-2.37-1.73-17.22-12.81-20.32-23.47-2-7-9.9-.24-12.53,3.55,3.91,8.57,11.15,19.66,24.47,29.8C459.12,311.23,464.25,307.94,462.42,306.59Z"/><path class="cls-27" d="M454.1,308a2.83,2.83,0,0,1-2.82,2.74A2.66,2.66,0,0,1,448.6,308a2.83,2.83,0,0,1,2.82-2.74A2.66,2.66,0,0,1,454.1,308Z"/><path class="cls-32" d="M405.76,301s-13.1,2.7-24.59,15.86c0,0-6,5.95-5.59,8.25a3.35,3.35,0,0,0,5.08,2.47S388.19,342,446.22,343l6,1.46s.83,2.59,1.3,2.11,10.55.72,11.78,3.64c1.13,2.69,5.77,1.44,7.27-.84,1.81-2.76,2.36-17.73,1.47-17.57s-.91-1.46-3.16-.65-1.4-.81-3.67.32-7.89,1.95-13.18,2.44-11.9,1-13,.49-13.26-2.28-26.7-15.75a19.62,19.62,0,0,1,2.49-4.86C414.89,305.45,405.76,301,405.76,301Z"/><polygon class="cls-41" points="188.94 375.31 189.63 385.33 275.36 387.33 274.98 375.64 188.94 375.31"/><polygon class="cls-42" points="289.04 372.71 274.98 375.64 275.36 387.33 288.46 383.74 289.04 372.71"/><polygon class="cls-41" points="187.76 356.99 188.45 367.36 273.84 364.96 273.78 353.35 187.76 356.99"/><polygon class="cls-42" points="287.84 350.32 273.78 353.35 273.84 364.96 287.91 362.96 287.84 350.32"/><polygon class="cls-43" points="184.86 345.82 186.52 357.79 276.06 353.8 275.68 341.7 184.86 345.82"/><polygon class="cls-30" points="289.29 340.23 275.68 341.7 276.06 353.8 289.35 351.64 289.29 340.23"/><polygon class="cls-41" points="185.46 335.83 187.4 345.7 274.26 342.49 273.5 330.61 185.46 335.83"/><polygon class="cls-42" points="287.56 327.58 273.5 330.61 274.26 342.49 286.7 340.71 287.56 327.58"/><polygon class="cls-43" points="182.04 326.66 183.69 336.34 275.25 330.78 274.87 318.68 182.04 326.66"/><polygon class="cls-30" points="291.45 316.68 274.87 318.68 275.25 330.78 291.51 328.09 291.45 316.68"/><polygon class="cls-41" points="185.36 316.59 186.23 326.3 273.44 318.99 273.38 307.38 185.36 316.59"/><polygon class="cls-42" points="287.43 306.69 273.38 307.38 273.44 318.99 287.39 317.17 287.43 306.69"/><polygon class="cls-43" points="183.19 366.94 184.84 376.62 274.4 376.62 274.02 364.52 183.19 366.94"/><polygon class="cls-30" points="290.6 362.52 274.02 364.52 274.4 376.62 290.66 373.93 290.6 362.52"/><polygon class="cls-41" points="188.94 375.31 189.63 385.33 275.36 387.33 274.98 375.64 188.94 375.31"/><polygon class="cls-42" points="289.04 372.71 274.98 375.64 275.36 387.33 288.46 383.74 289.04 372.71"/><polygon class="cls-41" points="187.76 356.99 188.45 367.36 273.84 364.96 273.78 353.35 187.76 356.99"/><polygon class="cls-42" points="287.84 350.32 273.78 353.35 273.84 364.96 287.91 362.96 287.84 350.32"/><polygon class="cls-43" points="184.86 345.82 186.52 357.79 276.06 353.8 275.68 341.7 184.86 345.82"/><polygon class="cls-44" points="289.29 340.23 275.68 341.7 276.06 353.8 289.35 351.64 289.29 340.23"/><polygon class="cls-41" points="185.46 335.83 187.4 345.7 274.26 342.49 273.5 330.61 185.46 335.83"/><polygon class="cls-42" points="290.34 328.08 273.5 330.61 274.26 342.49 290.17 340.46 290.34 328.08"/><polygon class="cls-43" points="182.04 326.66 183.69 336.34 275.25 330.78 274.87 318.68 182.04 326.66"/><polygon class="cls-44" points="291.45 316.68 274.87 318.68 275.25 330.78 291.51 328.09 291.45 316.68"/><polygon class="cls-41" points="185.36 316.59 186.23 326.3 273.44 318.99 273.38 307.38 185.36 316.59"/><polygon class="cls-42" points="287.43 306.69 273.38 307.38 273.44 318.99 287.39 317.17 287.43 306.69"/><polygon class="cls-43" points="183.19 366.94 184.84 376.62 274.4 376.62 274.02 364.52 183.19 366.94"/><polygon class="cls-44" points="290.6 362.52 274.02 364.52 274.4 376.62 290.66 373.93 290.6 362.52"/><polygon class="cls-41" points="230.53 301.82 232.29 312.48 170.87 306.42 167.67 293.98 230.53 301.82"/><polygon class="cls-42" points="280.6 265.43 282.74 278.83 232.33 312.47 230.56 301.82 280.6 265.43"/><polygon class="cls-45" points="221.28 261.44 167.69 294.08 230.56 301.82 280.6 265.43 221.28 261.44"/><polygon class="cls-46" points="159.32 285.39 205.19 267.31 223.91 218.82 182.9 237.75 159.32 285.39"/><path class="cls-43" d="M179.4,235.53s-19,28.44-28.65,47.39l8,6.75s11.37-22.24,27-49.21Z"/><path class="cls-41" d="M221.49,211.69s-18.8,9.84-42.09,23.84l6.33,4.93s31.66-17.12,42.84-22.5Z"/><polygon class="cls-41" points="150.75 282.92 158.74 289.67 205.91 270.94 197.26 264.82 150.75 282.92"/><path class="cls-42" d="M221.49,211.69s-6.35,21.42-24.23,53.13l8.65,6.12s18-33.6,22.66-53C228.57,218,225.87,213.13,221.49,211.69Z"/><polygon class="cls-46" points="144.46 173.71 111.75 222.78 148.66 263.86 164.14 220.24 144.46 173.71"/><path class="cls-41" d="M166.35,217.45s-10.76-23.67-20.48-46.18l-6,1s7,19.65,22.39,46Z"/><path class="cls-43" d="M151.53,263.85a428.18,428.18,0,0,0,14.82-46.4l-4.11.87S152.92,253,146,265.9Z"/><polygon class="cls-42" points="145.87 171.27 139.85 172.28 110.08 221.29 116.57 218.83 145.87 171.27"/><path class="cls-41" d="M151.53,263.85s-16.3-14.46-35-45l-6.49,2.47S127.9,247.77,146,265.9A23.3,23.3,0,0,0,151.53,263.85Z"/><path class="cls-47" d="M191.94,182.06c-4.41,18.66-15.14,29-22.89,41.35-6.12,9.72,3.32,27.24,23.59,14.58s34.45-48.91,26.81-67.25S197.41,158.93,191.94,182.06Z"/><path class="cls-48" d="M193.4,185.1c-3.48,15.6-12,24.25-18.18,34.54-4.86,8.12,2.74,22.82,18.91,12.28s27.4-40.84,21.23-56.22S197.7,165.75,193.4,185.1Z"/><path class="cls-49" d="M192,228.24c-2.71,2.77-6.19,3.63-7.79,1.93s-.68-5.34,2-8.11,6.2-3.63,7.79-1.92S194.69,225.47,192,228.24Z"/><path class="cls-49" d="M210.39,206c-1.5,2.39-3.84,3.57-5.23,2.63s-1.28-3.63.22-6,3.84-3.57,5.22-2.63S211.89,203.59,210.39,206Z"/><ellipse class="cls-49" cx="204.75" cy="178.87" rx="7.39" ry="5.22" transform="translate(-65.05 212.46) rotate(-48.24)"/><path class="cls-49" d="M197.35,202.72c-1.63,2.88-4.22,4.45-5.79,3.5s-1.5-4.06.13-6.94,4.23-4.45,5.79-3.51S199,199.83,197.35,202.72Z"/><polygon class="cls-50" points="179.39 225.75 178.56 218.38 188.6 220.74 179.39 225.75"/><polygon class="cls-50" points="203.28 218.38 197.05 222.06 195.56 211.39 203.28 218.38"/><polygon class="cls-50" points="194.87 201.38 195.22 207.81 186.66 205.22 194.87 201.38"/><polygon class="cls-50" points="207.09 180.63 210.58 187.04 200.37 188.92 207.09 180.63"/><polygon class="cls-50" points="208 194.97 211.01 200.6 203.1 201.71 208 194.97"/><path class="cls-51" d="M189.61,214.11a2,2,0,0,1-1.9,2.09,1.9,1.9,0,0,1-2.11-1.77,2,2,0,0,1,1.9-2.09A1.93,1.93,0,0,1,189.61,214.11Z"/><path class="cls-51" d="M200.18,186.36a2,2,0,0,1-1.9,2.08,1.9,1.9,0,0,1-2.11-1.77,2,2,0,0,1,1.9-2.08A1.91,1.91,0,0,1,200.18,186.36Z"/><path class="cls-51" d="M203.25,205.49a2,2,0,0,1-1.91,2.09,1.93,1.93,0,0,1-2.11-1.77,2,2,0,0,1,1.9-2.09A1.92,1.92,0,0,1,203.25,205.49Z"/><path class="cls-51" d="M198.29,218a2,2,0,0,1-1.91,2.09,1.92,1.92,0,0,1-2.11-1.77,2,2,0,0,1,1.9-2.09A1.93,1.93,0,0,1,198.29,218Z"/><path class="cls-51" d="M214.24,190.28a2,2,0,0,1-1.9,2.08,1.92,1.92,0,0,1-2.12-1.77,2,2,0,0,1,1.9-2.08A1.92,1.92,0,0,1,214.24,190.28Z"/><path class="cls-51" d="M202.42,195.42a2,2,0,0,1-1.9,2.09,1.92,1.92,0,0,1-2.11-1.78,2,2,0,0,1,1.9-2.08A1.9,1.9,0,0,1,202.42,195.42Z"/><path class="cls-49" d="M187.61,188.06c-.39,1.54-1.5,2.65-2.48,2.47s-1.47-1.57-1.08-3.12,1.5-2.65,2.48-2.47S188,186.52,187.61,188.06Z"/><path class="cls-49" d="M194.32,175.78c.71,2.49,0,4.85-1.61,5.28s-3.47-1.25-4.18-3.73,0-4.85,1.61-5.28S193.61,173.29,194.32,175.78Z"/><polygon class="cls-50" points="185.07 179.3 186.81 183.05 180.43 183.67 185.07 179.3"/><polygon class="cls-50" points="198.12 183.75 201.77 186.55 195.66 190.07 198.12 183.75"/><polygon class="cls-50" points="177.85 191.59 180.89 193.92 175.8 196.86 177.85 191.59"/><path class="cls-51" d="M193.19,185.87a1.34,1.34,0,0,1-.79,1.73,1.26,1.26,0,1,1,.79-1.73Z"/><path class="cls-51" d="M177,179.75a1.34,1.34,0,0,1-.79,1.73,1.26,1.26,0,1,1,.79-1.73Z"/><g class="cls-52"><path class="cls-20" d="M222.1,293.5c-12.32,0-21.73-5.41-21-12.07s11.39-12.06,23.71-12.06a39.3,39.3,0,0,1,6.87.59c.79.15,1.18.61.87,1.05a2.2,2.2,0,0,1-2,.53,33.56,33.56,0,0,0-5.93-.51c-10.62,0-19.79,4.67-20.45,10.4s7.46,10.41,18.09,10.41,19.79-4.67,20.45-10.41a5.78,5.78,0,0,0-.38-2.78c-.18-.44.35-.9,1.18-1s1.65.14,1.83.58a6.48,6.48,0,0,1,.44,3.22C245.05,288.09,234.42,293.5,222.1,293.5Z"/><path class="cls-20" d="M250.62,276c-.68,0-1.27-.24-1.41-.61-1.35-3.35-5.74-6-11.76-7.07-.79-.14-1.18-.61-.87-1.05a2.22,2.22,0,0,1,2-.53c7,1.24,12.08,4.31,13.64,8.21.18.44-.36.89-1.19,1Z"/><path class="cls-20" d="M235.57,268.79l-7.94,11-.17.16,20.82-3.53C246.79,272.8,242,269.94,235.57,268.79Zm-.74,9c-.94,0-1.66-.42-1.6-.93s.87-.92,1.81-.92,1.66.42,1.6.92S235.78,277.76,234.83,277.76Zm2.66-2.85c-1.16,0-2.05-.51-2-1.14s1.08-1.14,2.24-1.14,2.06.51,2,1.14S238.66,274.91,237.49,274.91Zm5.56,1c-.82,0-1.44-.36-1.39-.8s.75-.8,1.57-.8,1.45.36,1.4.8S243.87,276,243.05,276Z"/><path class="cls-20" d="M223.26,281.93l.2-.18,7-9.25a30.54,30.54,0,0,0-5.9-.56c-9.71,0-18.06,4.25-18.66,9.49s6.79,9.49,16.5,9.49,18.06-4.24,18.66-9.49a5.21,5.21,0,0,0-.27-2.32Zm-6.36-7.06c1.4,0,2.46.61,2.38,1.37s-1.29,1.37-2.69,1.37-2.47-.62-2.38-1.37S215.5,274.87,216.9,274.87Zm-8.07,4c.06-.51.88-.93,1.84-.93s1.68.42,1.62.93-.88.94-1.84.94S208.77,279.43,208.83,278.91Zm3.84,6.79c-1.59,0-2.8-.7-2.7-1.56s1.46-1.55,3.05-1.55,2.81.69,2.71,1.55S214.26,285.7,212.67,285.7Zm4.22,2.42c-1.15,0-2-.5-1.95-1.12s1.06-1.12,2.2-1.12,2,.51,2,1.12S218,288.12,216.89,288.12Zm1.75-6.28c-1.14,0-2-.5-1.95-1.12s1.06-1.12,2.21-1.12,2,.5,1.94,1.12S219.79,281.84,218.64,281.84Zm4-6.72c.06-.52.88-.94,1.84-.94s1.68.42,1.62.94-.88.93-1.83.93S222.57,275.63,222.63,275.12Zm3.28,7.65c1,0,1.68.42,1.62.94s-.88.93-1.83.93-1.68-.42-1.62-.93S225,282.77,225.91,282.77Zm.11,6.1c-1.33,0-2.35-.58-2.27-1.31s1.23-1.3,2.57-1.3,2.36.58,2.27,1.3S227.36,288.87,226,288.87Zm6.12-3.11c-1.53,0-2.69-.67-2.6-1.49s1.41-1.5,2.94-1.5,2.69.67,2.6,1.5S233.67,285.76,232.14,285.76Zm4.75-3.24c-1.21,0-2.13-.53-2.06-1.18s1.12-1.18,2.33-1.18,2.13.53,2.05,1.18S238.1,282.52,236.89,282.52Z"/></g><path class="cls-53" d="M183.7,447.4h-.33a6.24,6.24,0,0,0-1.68-1c-3.58-1.41-7.89.8-9.63,4.94-1.41,3.36-.69,7,1.54,8.95a7.36,7.36,0,0,0-1.12,1.83c-1.35,3.23-.19,6.73,2.59,7.83a5.52,5.52,0,0,0,5.73-1.32,6,6,0,0,0,2.46,1.81c3.57,1.41,7.88-.8,9.62-4.94a8.09,8.09,0,0,0-.92-8.3c0-.23,0-.46,0-.69a8.16,8.16,0,0,0,2.78-3.51c1.56-3.71.22-7.74-3-9C188.9,442.85,185.48,444.36,183.7,447.4Z"/><path class="cls-53" d="M145.26,452l.06-.23a8.14,8.14,0,0,1-.12-1.5c.08-3,1.87-5.36,4-5.36,1.73,0,3.15,1.58,3.59,3.76a2.25,2.25,0,0,1,1-.25c1.66,0,3,1.87,2.9,4.18a4.73,4.73,0,0,1-1.67,3.68,7,7,0,0,1,.32,2.28c-.08,3-1.87,5.36-4,5.36-1.56,0-2.86-1.28-3.43-3.13l-.3-.17a3,3,0,0,1-2.06.93c-1.91,0-3.41-2.16-3.34-4.81C142.28,454.38,143.59,452.4,145.26,452Z"/><path class="cls-53" d="M129.34,453.46a.74.74,0,0,0,0-.14,4.15,4.15,0,0,0,.12-.88c0-1.74-1-3.15-2.27-3.15a2.64,2.64,0,0,0-2.3,2.21,1.4,1.4,0,0,0-.61-.14c-1,0-1.85,1.09-1.88,2.45a2.55,2.55,0,0,0,.91,2.16,3.9,3.9,0,0,0-.26,1.34c-.05,1.74,1,3.15,2.27,3.15a2.48,2.48,0,0,0,2.17-1.84l.2-.1a1.71,1.71,0,0,0,1.22.55c1.16,0,2.14-1.27,2.17-2.83A2.6,2.6,0,0,0,129.34,453.46Z"/><g class="cls-54"><path class="cls-45" d="M76.19,376.09l6.66-.36c4.24-.19,10.3-.55,17.56-.82s15.75-.67,24.84-.94l28.47-.87,28.48-.6c9.09-.2,17.57-.23,24.84-.33s13.34-.05,17.58-.08l6.67,0-6.66.37c-4.24.19-10.29.54-17.56.82s-15.74.67-24.83.94l-28.47.86-28.48.6c-9.09.19-17.57.22-24.85.33s-13.33.05-17.58.08Z"/></g><g class="cls-54"><path class="cls-45" d="M103.93,350.12l6.09-.51c3.88-.28,9.42-.75,16.08-1.2s14.42-1,22.74-1.48l12.83-.75,13.25-.71,13.26-.65,12.84-.58c8.33-.36,16.1-.65,22.77-.86s12.23-.34,16.12-.45l6.11-.12-6.09.51c-3.88.28-9.43.75-16.08,1.2s-14.42,1-22.74,1.48l-12.83.75-13.25.71-13.26.65-12.84.57c-8.33.36-16.1.65-22.77.87s-12.23.33-16.12.45Z"/></g><g class="cls-54"><path class="cls-45" d="M131.51,334s1.25-.18,3.46-.43,5.36-.63,9.14-1,8.21-.79,12.94-1.18l7.31-.58,7.54-.54,7.55-.48c2.49-.17,5-.27,7.32-.41,4.75-.25,9.18-.44,13-.56s7-.18,9.19-.24,3.49,0,3.49,0-1.25.17-3.46.43-5.36.63-9.14,1-8.21.79-12.94,1.18c-2.37.19-4.82.41-7.31.58l-7.54.54-7.55.47-7.32.41c-4.75.25-9.18.44-13,.57s-7,.17-9.19.24S131.51,334,131.51,334Z"/></g><g class="cls-54"><path class="cls-45" d="M153.74,417.29l5.28-.37c3.37-.19,8.17-.53,13.94-.83s12.49-.64,19.7-.94l11.12-.45,11.48-.4,11.48-.34,11.12-.27c7.22-.17,13.95-.28,19.73-.34s10.58,0,14-.07l5.3,0-5.28.36c-3.37.2-8.17.53-13.94.83s-12.49.64-19.7.95l-11.12.44-11.48.41-11.48.33-11.12.27c-7.22.17-13.95.28-19.73.34s-10.59,0-14,.07Z"/></g><g class="cls-54"><path class="cls-45" d="M132.44,382.83l5.73-.34c3.65-.18,8.86-.49,15.11-.76s13.55-.57,21.37-.84l12-.39,12.45-.35,12.45-.28,12.06-.22c7.82-.13,15.12-.2,21.38-.23s11.48,0,15.13,0l5.74.05-5.73.34c-3.65.17-8.86.49-15.11.76s-13.55.57-21.37.84l-12,.39-12.45.35-12.45.28-12.06.21c-7.82.13-15.12.21-21.38.23s-11.48,0-15.13,0Z"/></g><g class="cls-54"><path class="cls-45" d="M129.6,411.07l5-.37c3.2-.19,7.76-.53,13.25-.83s11.88-.64,18.74-.94l10.58-.45,10.92-.4,10.92-.34,10.58-.27c6.86-.17,13.27-.28,18.76-.33s10.08-.05,13.28-.08l5,0-5,.36c-3.2.2-7.77.54-13.26.83s-11.88.64-18.74,1l-10.58.44-10.92.41-10.92.33-10.58.28c-6.86.16-13.27.27-18.76.33s-10.08.05-13.28.07Z"/></g><g class="cls-55"><path class="cls-45" d="M195.13,154.78a12.06,12.06,0,0,1,1.3-1.25,21.12,21.12,0,0,1,4-2.66,18.8,18.8,0,0,1,3-1.27,18.36,18.36,0,0,1,3.56-.83,17.19,17.19,0,0,1,3.94-.1,19,19,0,0,1,4,.78,21.45,21.45,0,0,1,3.72,1.65,15.76,15.76,0,0,1,1.67,1.06,18.22,18.22,0,0,1,1.54,1.16,27.33,27.33,0,0,1,2.63,2.48,26.62,26.62,0,0,1,2,2.48,22.46,22.46,0,0,1,1.53,2.23,17.2,17.2,0,0,1,1.05,1.79c.54,1,.83,1.59.83,1.59s-.43-.49-1.16-1.37c-.35-.45-.8-1-1.33-1.55s-1.11-1.26-1.79-1.94-1.43-1.41-2.22-2.16-1.7-1.47-2.66-2.15a15.41,15.41,0,0,0-1.48-1c-.51-.33-1-.62-1.58-.91a20.71,20.71,0,0,0-3.39-1.45,19.18,19.18,0,0,0-7.16-.83,23.62,23.62,0,0,0-6.27,1.39,30.13,30.13,0,0,0-4.22,2C195.67,154.41,195.13,154.78,195.13,154.78Z"/></g><g class="cls-55"><path class="cls-45" d="M201.74,144a6.88,6.88,0,0,1,.9-1,9.84,9.84,0,0,1,1.21-1c.25-.18.52-.38.81-.57l1-.53a10.29,10.29,0,0,1,1.11-.48A6.32,6.32,0,0,1,208,140c.44-.09.89-.22,1.35-.29s1-.07,1.45-.11a9.4,9.4,0,0,1,1.49.07,6.56,6.56,0,0,1,1.52.22l1.5.39a12.12,12.12,0,0,1,1.45.57c.47.22.95.42,1.4.66l1.29.82c.42.28.85.54,1.24.84l1.09,1a14.72,14.72,0,0,1,2,1.89c.58.64,1.1,1.27,1.58,1.84a13.68,13.68,0,0,1,1.18,1.67c.34.5.61,1,.84,1.32.46.74.7,1.17.7,1.17s-.38-.33-1-.92c-.31-.3-.7-.66-1.12-1.08l-.67-.67a8.7,8.7,0,0,0-.76-.71c-.56-.47-1.16-1-1.77-1.54a22.39,22.39,0,0,0-2-1.6l-1.08-.81c-.38-.25-.79-.46-1.18-.71l-1.19-.73c-.41-.2-.85-.36-1.27-.55a7.81,7.81,0,0,0-1.27-.54l-1.31-.38a7.41,7.41,0,0,0-1.31-.26,7.09,7.09,0,0,0-1.29-.15c-.43,0-.85,0-1.27,0s-.81.09-1.21.12a7,7,0,0,0-1.14.21,8.21,8.21,0,0,0-1.06.27l-1,.33-.85.36c-.54.23-1,.49-1.36.69s-.66.39-.85.52A2.68,2.68,0,0,0,201.74,144Z"/></g><g class="cls-56"><path class="cls-57" d="M481.66,267a5,5,0,0,1-1.56-.41,6.49,6.49,0,0,1-1.45-.84,5.9,5.9,0,0,1-1.36-1.41,5.81,5.81,0,0,1-.49-.88,4.53,4.53,0,0,1-.31-.92,4.11,4.11,0,0,1-.14-.89,3,3,0,0,1,0-.8,3.22,3.22,0,0,1,.08-.66l.14-.5a4.14,4.14,0,0,1,.14-.41s0,.16.06.44l.05.48a5.29,5.29,0,0,0,.1.62,3.8,3.8,0,0,0,.16.71,5.9,5.9,0,0,0,.24.75,5.7,5.7,0,0,0,.34.76,4.3,4.3,0,0,0,.45.74,8.21,8.21,0,0,0,1.1,1.31c.4.38.8.72,1.16,1C481.11,266.63,481.66,267,481.66,267Z"/></g><g class="cls-55"><path class="cls-45" d="M113.13,251.6c-1.44-1.78-2.83-3.6-4.21-5.42s-2.73-3.67-4.06-5.52-2.66-3.72-4-5.59-2.59-3.76-3.88-5.65l-.34-.49.29-.54c1.24-2.26,2.54-4.48,3.81-6.72l1.94-3.33c.66-1.11,1.3-2.22,2-3.32,1.33-2.21,2.67-4.4,4-6.58s2.76-4.35,4.23-6.48c-1.06,2.36-2.2,4.67-3.34,7s-2.32,4.6-3.52,6.87c-.59,1.15-1.21,2.28-1.81,3.41l-1.83,3.4c-1.26,2.24-2.48,4.51-3.76,6.74l0-1c1.25,1.91,2.54,3.79,3.76,5.72s2.48,3.84,3.68,5.78,2.41,3.88,3.59,5.84S112,249.59,113.13,251.6Z"/></g><g class="cls-55"><path class="cls-45" d="M102.1,244.84c-1.14-1.34-2.22-2.71-3.3-4.09s-2.14-2.77-3.17-4.19-2-2.82-3.06-4.25-2-2.87-3-4.31l-.34-.49.3-.54c.93-1.73,1.94-3.42,2.91-5.13.49-.86,1-1.7,1.5-2.54s1-1.7,1.53-2.53q1.53-2.52,3.15-5c1.08-1.65,2.16-3.29,3.33-4.89-.75,1.83-1.6,3.61-2.44,5.39s-1.73,3.54-2.63,5.29c-.44.88-.92,1.74-1.37,2.62s-.91,1.74-1.39,2.6c-1,1.72-1.88,3.46-2.87,5.16l0-1c1,1.46,1.94,2.9,2.87,4.38s1.87,2.95,2.78,4.45,1.8,3,2.69,4.5S101.3,243.27,102.1,244.84Z"/></g><g class="cls-56"><path class="cls-35" d="M473.77,345a34,34,0,0,0-1.12-11.39,62.15,62.15,0,0,1,.16,15.26A16.36,16.36,0,0,0,473.77,345Z"/><path class="cls-35" d="M471.59,350.36a36.42,36.42,0,0,0-.61-15.9c1,9.35.33,14.58,0,16.34A5.73,5.73,0,0,0,471.59,350.36Z"/></g><path class="cls-32" d="M405.76,301s-13.1,2.7-24.59,15.86c0,0-6,5.95-5.59,8.25a3.35,3.35,0,0,0,5.08,2.47S388.19,342,446.22,343l6,1.46s.83,2.59,1.3,2.11,10.55.72,11.78,3.64c1.13,2.69,5.77,1.44,7.27-.84,1.81-2.76,2.36-17.73,1.47-17.57s-.91-1.46-3.16-.65-1.4-.81-3.67.32-7.89,1.95-13.18,2.44-11.9,1-13,.49-13.26-2.28-26.7-15.75a19.62,19.62,0,0,1,2.49-4.86C414.89,305.45,405.76,301,405.76,301Z"/><polygon class="cls-20" points="559 641.41 241 641.41 265.42 667.03 241 692.65 559 692.65 534.58 667.03 559 641.41"/><text class="cls-58" transform="translate(313.76 681.82) scale(0.9 1)">IS<tspan class="cls-59" x="27.11" y="0">E</tspan><tspan class="cls-60" x="45.59" y="0">T</tspan><tspan x="61.92" y="0">-BIZE</tspan><tspan class="cls-61" x="140.21" y="0">R</tspan><tspan x="160.04" y="0">TE</tspan></text><g class="cls-62"><polygon class="cls-47" points="287.19 658.77 289.4 665.57 296.55 665.57 290.77 669.77 292.98 676.58 287.19 672.37 281.4 676.58 283.61 669.77 277.82 665.57 284.98 665.57 287.19 658.77"/><polygon class="cls-47" points="512.81 658.77 515.02 665.57 522.17 665.57 516.39 669.77 518.6 676.58 512.81 672.37 507.02 676.58 509.23 669.77 503.45 665.57 510.6 665.57 512.81 658.77"/></g><path class="cls-21" d="M465.07,350.29a7.56,7.56,0,0,1-7.42,6.87,6.31,6.31,0,0,1-6.39-6.87,7.54,7.54,0,0,1,7.42-6.87A6.31,6.31,0,0,1,465.07,350.29Z"/><path class="cls-63" d="M459.76,353.1a4.08,4.08,0,0,1-4.11,3.54,3.37,3.37,0,0,1-3.55-3.54,4.07,4.07,0,0,1,4.12-3.53A3.35,3.35,0,0,1,459.76,353.1Z"/></g></g></svg>